<svg width="285" height="278" viewBox="0 0 285 278" fill="none" xmlns="http://www.w3.org/2000/svg">
<path d="M1.80181 153.543C1.80181 151.767 2.12181 150.231 2.76181 148.935C3.41781 147.639 4.35381 146.639 5.56981 145.935C6.78581 145.215 8.23381 144.855 9.91381 144.855C11.5778 144.855 13.0178 145.215 14.2338 145.935C15.4498 146.639 16.3858 147.639 17.0418 148.935C17.7138 150.231 18.0498 151.759 18.0498 153.519C18.0498 155.295 17.7138 156.839 17.0418 158.151C16.3858 159.447 15.4498 160.455 14.2338 161.175C13.0178 161.895 11.5778 162.255 9.91381 162.255C8.23381 162.255 6.78581 161.895 5.56981 161.175C4.36981 160.455 3.44181 159.447 2.78581 158.151C2.12981 156.839 1.80181 155.303 1.80181 153.543ZM5.04181 153.543C5.04181 155.447 5.44981 156.935 6.26581 158.007C7.08181 159.079 8.29781 159.615 9.91381 159.615C11.4818 159.615 12.6898 159.079 13.5378 158.007C14.3858 156.935 14.8098 155.447 14.8098 153.543C14.8098 151.623 14.3858 150.135 13.5378 149.079C12.7058 148.023 11.4978 147.495 9.91381 147.495C8.29781 147.495 7.08181 148.023 6.26581 149.079C5.44981 150.135 5.04181 151.623 5.04181 153.543ZM21.0044 162.015V152.919C21.0044 152.423 20.9884 151.919 20.9564 151.407C20.9244 150.895 20.8764 150.391 20.8124 149.895H23.7164L23.9564 152.295H23.6684C24.0524 151.447 24.6204 150.799 25.3724 150.351C26.1244 149.887 26.9964 149.655 27.9884 149.655C29.4124 149.655 30.4844 150.055 31.2044 150.855C31.9244 151.655 32.2844 152.903 32.2844 154.599V162.015H29.2844V154.743C29.2844 153.767 29.0924 153.071 28.7084 152.655C28.3404 152.223 27.7804 152.007 27.0284 152.007C26.1004 152.007 25.3644 152.295 24.8204 152.871C24.2764 153.447 24.0044 154.215 24.0044 155.175V162.015H21.0044ZM35.4654 162.015V144.351H38.4654V162.015H35.4654ZM41.7232 162.015V149.895H44.7232V162.015H41.7232ZM41.5552 147.615V144.687H44.8912V147.615H41.5552ZM47.981 162.015V152.919C47.981 152.423 47.965 151.919 47.933 151.407C47.901 150.895 47.853 150.391 47.789 149.895H50.693L50.933 152.295H50.645C51.029 151.447 51.597 150.799 52.349 150.351C53.101 149.887 53.973 149.655 54.965 149.655C56.389 149.655 57.461 150.055 58.181 150.855C58.901 151.655 59.261 152.903 59.261 154.599V162.015H56.261V154.743C56.261 153.767 56.069 153.071 55.685 152.655C55.317 152.223 54.757 152.007 54.005 152.007C53.077 152.007 52.341 152.295 51.797 152.871C51.253 153.447 50.981 154.215 50.981 155.175V162.015H47.981ZM68.2979 162.255C66.2659 162.255 64.6739 161.695 63.5219 160.575C62.3699 159.455 61.7939 157.919 61.7939 155.967C61.7939 154.703 62.0419 153.599 62.5379 152.655C63.0339 151.711 63.7219 150.975 64.6019 150.447C65.4979 149.919 66.5379 149.655 67.7219 149.655C68.8899 149.655 69.8659 149.903 70.6499 150.399C71.4339 150.895 72.0259 151.591 72.4259 152.487C72.8419 153.383 73.0499 154.431 73.0499 155.631V156.423H64.2179V154.839H70.9139L70.5059 155.175C70.5059 154.055 70.2659 153.199 69.7859 152.607C69.3219 152.015 68.6419 151.719 67.7459 151.719C66.7539 151.719 65.9859 152.071 65.4419 152.775C64.9139 153.479 64.6499 154.463 64.6499 155.727V156.039C64.6499 157.351 64.9699 158.335 65.6099 158.991C66.2659 159.631 67.1859 159.951 68.3699 159.951C69.0579 159.951 69.6979 159.863 70.2899 159.687C70.8979 159.495 71.4739 159.191 72.0179 158.775L72.9059 160.791C72.3299 161.255 71.6419 161.615 70.8419 161.871C70.0419 162.127 69.1939 162.255 68.2979 162.255ZM82.1763 167.199V152.919C82.1763 152.423 82.1603 151.919 82.1283 151.407C82.0963 150.895 82.0483 150.391 81.9843 149.895H84.8883L85.1523 152.439H84.8883C85.1283 151.591 85.6323 150.919 86.4003 150.423C87.1843 149.911 88.0883 149.655 89.1123 149.655C90.1843 149.655 91.1203 149.911 91.9203 150.423C92.7203 150.919 93.3443 151.639 93.7923 152.583C94.2403 153.511 94.4643 154.631 94.4643 155.943C94.4643 157.255 94.2403 158.383 93.7923 159.327C93.3443 160.271 92.7203 160.999 91.9203 161.511C91.1203 162.007 90.1843 162.255 89.1123 162.255C88.1043 162.255 87.2163 162.007 86.4483 161.511C85.6803 161.015 85.1683 160.351 84.9123 159.519H85.1763V167.199H82.1763ZM88.2723 159.951C89.2323 159.951 90.0003 159.623 90.5763 158.967C91.1523 158.295 91.4403 157.287 91.4403 155.943C91.4403 154.599 91.1523 153.599 90.5763 152.943C90.0003 152.287 89.2323 151.959 88.2723 151.959C87.3283 151.959 86.5683 152.287 85.9923 152.943C85.4163 153.599 85.1283 154.599 85.1283 155.943C85.1283 157.287 85.4163 158.295 85.9923 158.967C86.5683 159.623 87.3283 159.951 88.2723 159.951ZM97.0591 162.015V144.351H100.059V152.319H99.7231C100.091 151.455 100.659 150.799 101.427 150.351C102.195 149.887 103.075 149.655 104.067 149.655C105.507 149.655 106.579 150.063 107.283 150.879C107.987 151.679 108.339 152.903 108.339 154.551V162.015H105.339V154.695C105.339 153.751 105.155 153.071 104.787 152.655C104.435 152.223 103.867 152.007 103.083 152.007C102.171 152.007 101.435 152.295 100.875 152.871C100.331 153.431 100.059 154.183 100.059 155.127V162.015H97.0591ZM116.2 162.255C115.144 162.255 114.216 162.007 113.416 161.511C112.616 160.999 111.992 160.271 111.544 159.327C111.096 158.383 110.872 157.255 110.872 155.943C110.872 154.631 111.096 153.511 111.544 152.583C111.992 151.639 112.616 150.919 113.416 150.423C114.216 149.911 115.144 149.655 116.2 149.655C117.224 149.655 118.12 149.911 118.888 150.423C119.672 150.919 120.192 151.591 120.448 152.439H120.184L120.448 149.895H123.328C123.28 150.391 123.232 150.895 123.184 151.407C123.152 151.919 123.136 152.423 123.136 152.919V162.015H120.16L120.136 159.519H120.424C120.168 160.351 119.648 161.015 118.864 161.511C118.08 162.007 117.192 162.255 116.2 162.255ZM117.04 159.951C117.984 159.951 118.744 159.623 119.32 158.967C119.896 158.295 120.184 157.287 120.184 155.943C120.184 154.599 119.896 153.599 119.32 152.943C118.744 152.287 117.984 151.959 117.04 151.959C116.096 151.959 115.336 152.287 114.76 152.943C114.184 153.599 113.896 154.599 113.896 155.943C113.896 157.287 114.176 158.295 114.736 158.967C115.312 159.623 116.08 159.951 117.04 159.951ZM126.379 162.015V152.991C126.379 152.479 126.363 151.959 126.331 151.431C126.315 150.903 126.275 150.391 126.211 149.895H129.115L129.451 153.207H128.971C129.131 152.407 129.395 151.743 129.763 151.215C130.147 150.687 130.611 150.295 131.155 150.039C131.699 149.783 132.291 149.655 132.931 149.655C133.219 149.655 133.451 149.671 133.627 149.703C133.803 149.719 133.979 149.759 134.155 149.823L134.131 152.463C133.827 152.335 133.563 152.255 133.339 152.223C133.131 152.191 132.867 152.175 132.547 152.175C131.859 152.175 131.275 152.319 130.795 152.607C130.331 152.895 129.979 153.295 129.739 153.807C129.515 154.319 129.403 154.903 129.403 155.559V162.015H126.379ZM135.825 162.015V152.919C135.825 152.423 135.809 151.919 135.777 151.407C135.745 150.895 135.697 150.391 135.633 149.895H138.537L138.777 152.295H138.489C138.825 151.463 139.337 150.815 140.025 150.351C140.729 149.887 141.561 149.655 142.521 149.655C143.481 149.655 144.273 149.887 144.897 150.351C145.537 150.799 145.985 151.503 146.241 152.463H145.857C146.193 151.599 146.745 150.919 147.513 150.423C148.281 149.911 149.161 149.655 150.153 149.655C151.513 149.655 152.529 150.055 153.201 150.855C153.873 151.655 154.209 152.903 154.209 154.599V162.015H151.209V154.719C151.209 153.759 151.049 153.071 150.729 152.655C150.409 152.223 149.897 152.007 149.193 152.007C148.361 152.007 147.705 152.303 147.225 152.895C146.745 153.471 146.505 154.255 146.505 155.247V162.015H143.505V154.719C143.505 153.759 143.345 153.071 143.025 152.655C142.705 152.223 142.193 152.007 141.489 152.007C140.657 152.007 140.001 152.303 139.521 152.895C139.057 153.471 138.825 154.255 138.825 155.247V162.015H135.825ZM162.091 162.255C161.035 162.255 160.107 162.007 159.307 161.511C158.507 160.999 157.883 160.271 157.435 159.327C156.987 158.383 156.763 157.255 156.763 155.943C156.763 154.631 156.987 153.511 157.435 152.583C157.883 151.639 158.507 150.919 159.307 150.423C160.107 149.911 161.035 149.655 162.091 149.655C163.115 149.655 164.011 149.911 164.779 150.423C165.563 150.919 166.083 151.591 166.339 152.439H166.075L166.339 149.895H169.219C169.171 150.391 169.123 150.895 169.075 151.407C169.043 151.919 169.027 152.423 169.027 152.919V162.015H166.051L166.027 159.519H166.315C166.059 160.351 165.539 161.015 164.755 161.511C163.971 162.007 163.083 162.255 162.091 162.255ZM162.931 159.951C163.875 159.951 164.635 159.623 165.211 158.967C165.787 158.295 166.075 157.287 166.075 155.943C166.075 154.599 165.787 153.599 165.211 152.943C164.635 152.287 163.875 151.959 162.931 151.959C161.987 151.959 161.227 152.287 160.651 152.943C160.075 153.599 159.787 154.599 159.787 155.943C159.787 157.287 160.067 158.295 160.627 158.967C161.203 159.623 161.971 159.951 162.931 159.951ZM177.861 162.255C176.613 162.255 175.517 161.999 174.573 161.487C173.645 160.975 172.925 160.247 172.413 159.303C171.901 158.343 171.645 157.207 171.645 155.895C171.645 154.583 171.901 153.463 172.413 152.535C172.941 151.607 173.669 150.895 174.597 150.399C175.525 149.903 176.613 149.655 177.861 149.655C178.661 149.655 179.437 149.783 180.189 150.039C180.957 150.279 181.581 150.631 182.061 151.095L181.149 153.183C180.717 152.783 180.229 152.487 179.685 152.295C179.157 152.087 178.637 151.983 178.125 151.983C177.053 151.983 176.213 152.319 175.605 152.991C175.013 153.663 174.717 154.639 174.717 155.919C174.717 157.199 175.013 158.183 175.605 158.871C176.213 159.559 177.053 159.903 178.125 159.903C178.621 159.903 179.133 159.807 179.661 159.615C180.205 159.423 180.701 159.127 181.149 158.727L182.061 160.791C181.565 161.255 180.933 161.615 180.165 161.871C179.413 162.127 178.645 162.255 177.861 162.255ZM184.335 167.463L183.639 165.087C184.391 164.927 185.023 164.743 185.535 164.535C186.047 164.327 186.471 164.055 186.807 163.719C187.143 163.383 187.423 162.951 187.647 162.423L188.247 161.007L188.175 162.183L182.895 149.895H186.087L189.879 159.351H189.183L192.999 149.895H196.023L190.503 162.687C190.135 163.551 189.735 164.263 189.303 164.823C188.871 165.399 188.407 165.855 187.911 166.191C187.415 166.543 186.871 166.815 186.279 167.007C185.687 167.199 185.039 167.351 184.335 167.463Z" fill="black"/>
<path d="M2.65914 206.571V195.291H6.96314C8.14714 195.291 9.05914 195.547 9.69914 196.059C10.3498 196.56 10.6751 197.286 10.6751 198.235C10.6751 198.95 10.4565 199.542 10.0191 200.011C9.59248 200.48 9.00581 200.79 8.25914 200.939V200.715C9.09114 200.8 9.74714 201.083 10.2271 201.563C10.7071 202.043 10.9471 202.688 10.9471 203.499C10.9471 204.502 10.6218 205.264 9.97114 205.787C9.32048 206.31 8.38714 206.571 7.17114 206.571H2.65914ZM3.61914 205.723H7.10714C7.97114 205.723 8.65914 205.558 9.17114 205.227C9.69381 204.886 9.95514 204.315 9.95514 203.515C9.95514 202.694 9.69381 202.118 9.17114 201.787C8.65914 201.446 7.97114 201.275 7.10714 201.275H3.61914V205.723ZM3.61914 200.443H6.85114C7.77914 200.443 8.48314 200.262 8.96314 199.899C9.44314 199.526 9.68314 198.987 9.68314 198.283C9.68314 197.579 9.44314 197.046 8.96314 196.683C8.48314 196.31 7.77914 196.123 6.85114 196.123H3.61914V200.443ZM16.1276 206.699C15.189 206.699 14.4743 206.448 13.9836 205.947C13.5036 205.435 13.2636 204.651 13.2636 203.595V198.555H14.2396V203.531C14.2396 204.342 14.405 204.934 14.7356 205.307C15.0663 205.68 15.573 205.867 16.2556 205.867C17.013 205.867 17.621 205.622 18.0796 205.131C18.549 204.63 18.7836 203.968 18.7836 203.147V198.555H19.7596V206.571H18.7996V204.683H19.0076C18.7836 205.334 18.4156 205.835 17.9036 206.187C17.4023 206.528 16.8103 206.699 16.1276 206.699ZM22.053 210.203L21.813 209.355C22.3144 209.238 22.7304 209.094 23.061 208.923C23.3917 208.763 23.669 208.55 23.893 208.283C24.117 208.016 24.3144 207.686 24.485 207.291L24.901 206.331L24.885 206.763L21.381 198.555H22.469L25.525 205.963H25.125L28.149 198.555H29.205L25.493 207.339C25.2904 207.83 25.0664 208.235 24.821 208.555C24.5864 208.886 24.3304 209.158 24.053 209.371C23.7757 209.595 23.4717 209.771 23.141 209.899C22.8104 210.027 22.4477 210.128 22.053 210.203ZM38.6155 210.203L38.3755 209.355C38.8769 209.238 39.2929 209.094 39.6235 208.923C39.9542 208.763 40.2315 208.55 40.4555 208.283C40.6795 208.016 40.8769 207.686 41.0475 207.291L41.4635 206.331L41.4475 206.763L37.9435 198.555H39.0315L42.0875 205.963H41.6875L44.7115 198.555H45.7675L42.0555 207.339C41.8529 207.83 41.6289 208.235 41.3835 208.555C41.1489 208.886 40.8929 209.158 40.6155 209.371C40.3382 209.595 40.0342 209.771 39.7035 209.899C39.3729 210.027 39.0102 210.128 38.6155 210.203ZM50.464 206.699C49.7067 206.699 49.0507 206.534 48.496 206.203C47.952 205.872 47.5307 205.398 47.232 204.779C46.9334 204.16 46.784 203.419 46.784 202.555C46.784 201.702 46.9334 200.966 47.232 200.347C47.5307 199.728 47.952 199.254 48.496 198.923C49.0507 198.582 49.7067 198.411 50.464 198.411C51.2107 198.411 51.856 198.582 52.4 198.923C52.9547 199.254 53.3814 199.728 53.68 200.347C53.9894 200.966 54.144 201.702 54.144 202.555C54.144 203.419 53.9894 204.16 53.68 204.779C53.3814 205.398 52.9547 205.872 52.4 206.203C51.856 206.534 51.2107 206.699 50.464 206.699ZM50.464 205.867C51.2747 205.867 51.9254 205.584 52.416 205.019C52.9067 204.454 53.152 203.632 53.152 202.555C53.152 201.478 52.9067 200.656 52.416 200.091C51.9254 199.526 51.2747 199.243 50.464 199.243C49.6427 199.243 48.9867 199.526 48.496 200.091C48.016 200.656 47.776 201.478 47.776 202.555C47.776 203.632 48.016 204.454 48.496 205.019C48.9867 205.584 49.6427 205.867 50.464 205.867ZM59.0964 206.699C58.1577 206.699 57.4431 206.448 56.9524 205.947C56.4724 205.435 56.2324 204.651 56.2324 203.595V198.555H57.2084V203.531C57.2084 204.342 57.3737 204.934 57.7044 205.307C58.0351 205.68 58.5417 205.867 59.2244 205.867C59.9817 205.867 60.5897 205.622 61.0484 205.131C61.5177 204.63 61.7524 203.968 61.7524 203.147V198.555H62.7284V206.571H61.7684V204.683H61.9764C61.7524 205.334 61.3844 205.835 60.8724 206.187C60.3711 206.528 59.7791 206.699 59.0964 206.699ZM65.3738 206.571V200.427C65.3738 200.118 65.3631 199.808 65.3418 199.499C65.3311 199.179 65.3044 198.864 65.2618 198.555H66.2218L66.3498 200.395L66.1578 200.411C66.2644 199.963 66.4564 199.595 66.7338 199.307C67.0111 199.008 67.3311 198.784 67.6938 198.635C68.0564 198.486 68.4298 198.411 68.8138 198.411C68.9524 198.411 69.0804 198.422 69.1978 198.443C69.3258 198.454 69.4431 198.475 69.5498 198.507L69.5178 199.387C69.3898 199.344 69.2618 199.318 69.1338 199.307C69.0058 199.296 68.8671 199.291 68.7178 199.291C68.2378 199.291 67.8164 199.408 67.4538 199.643C67.1018 199.878 66.8298 200.176 66.6378 200.539C66.4458 200.902 66.3498 201.27 66.3498 201.643V206.571H65.3738ZM75.046 206.571V200.347C75.046 200.059 75.0354 199.766 75.014 199.467C74.9927 199.168 74.9607 198.864 74.918 198.555H75.878L76.022 200.395H75.83C76.0327 199.766 76.3687 199.28 76.838 198.939C77.3074 198.587 77.878 198.411 78.55 198.411C79.2327 198.411 79.7874 198.576 80.214 198.907C80.6407 199.238 80.9234 199.75 81.062 200.443H80.822C81.014 199.824 81.366 199.334 81.878 198.971C82.39 198.598 82.9927 198.411 83.686 198.411C84.5607 198.411 85.222 198.662 85.67 199.163C86.118 199.664 86.342 200.448 86.342 201.515V206.571H85.366V201.579C85.366 200.768 85.222 200.182 84.934 199.819C84.646 199.446 84.1767 199.259 83.526 199.259C82.8007 199.259 82.2247 199.504 81.798 199.995C81.382 200.486 81.174 201.147 81.174 201.979V206.571H80.198V201.579C80.198 200.768 80.054 200.182 79.766 199.819C79.478 199.446 79.014 199.259 78.374 199.259C77.6487 199.259 77.0727 199.504 76.646 199.995C76.23 200.486 76.022 201.147 76.022 201.979V206.571H75.046ZM92.3923 206.699C91.1763 206.699 90.2109 206.336 89.4963 205.611C88.7923 204.886 88.4403 203.878 88.4403 202.587C88.4403 201.734 88.5949 200.998 88.9043 200.379C89.2243 199.76 89.6669 199.28 90.2323 198.939C90.7976 198.587 91.4536 198.411 92.2003 198.411C92.9149 198.411 93.5176 198.566 94.0083 198.875C94.4989 199.174 94.8776 199.606 95.1443 200.171C95.4109 200.726 95.5443 201.387 95.5443 202.155V202.603H89.1443V201.899H94.9363L94.6643 202.107C94.6643 201.2 94.4563 200.491 94.0403 199.979C93.6243 199.456 93.0056 199.195 92.1843 199.195C91.3096 199.195 90.6269 199.499 90.1363 200.107C89.6456 200.704 89.4003 201.499 89.4003 202.491V202.603C89.4003 203.67 89.6616 204.48 90.1843 205.035C90.7176 205.59 91.4589 205.867 92.4083 205.867C92.8989 205.867 93.3576 205.792 93.7843 205.643C94.2109 205.494 94.6216 205.238 95.0163 204.875L95.4163 205.595C95.0749 205.947 94.6323 206.219 94.0883 206.411C93.5443 206.603 92.9789 206.699 92.3923 206.699ZM100.664 206.699C99.9491 206.699 99.3251 206.534 98.7918 206.203C98.2584 205.872 97.8478 205.398 97.5598 204.779C97.2718 204.16 97.1278 203.419 97.1278 202.555C97.1278 201.691 97.2718 200.955 97.5598 200.347C97.8478 199.728 98.2584 199.254 98.7918 198.923C99.3251 198.582 99.9491 198.411 100.664 198.411C101.4 198.411 102.034 198.603 102.568 198.987C103.112 199.36 103.474 199.878 103.656 200.539H103.464V194.795H104.44V206.571H103.48V204.555H103.656C103.474 205.227 103.112 205.755 102.568 206.139C102.034 206.512 101.4 206.699 100.664 206.699ZM100.792 205.867C101.602 205.867 102.253 205.584 102.744 205.019C103.245 204.454 103.496 203.632 103.496 202.555C103.496 201.478 103.245 200.656 102.744 200.091C102.253 199.526 101.602 199.243 100.792 199.243C99.9811 199.243 99.3304 199.526 98.8398 200.091C98.3598 200.656 98.1198 201.478 98.1198 202.555C98.1198 203.632 98.3598 204.454 98.8398 205.019C99.3304 205.584 99.9811 205.867 100.792 205.867ZM107.093 206.571V198.555H108.069V206.571H107.093ZM106.933 196.587V195.371H108.245V196.587H106.933ZM113.966 206.699C113.208 206.699 112.547 206.534 111.982 206.203C111.416 205.862 110.979 205.376 110.67 204.747C110.371 204.118 110.222 203.371 110.222 202.507C110.222 201.643 110.376 200.907 110.686 200.299C110.995 199.68 111.427 199.211 111.982 198.891C112.547 198.571 113.208 198.411 113.966 198.411C114.478 198.411 114.968 198.507 115.438 198.699C115.918 198.891 116.312 199.158 116.622 199.499L116.222 200.219C115.891 199.888 115.534 199.648 115.15 199.499C114.766 199.339 114.382 199.259 113.998 199.259C113.123 199.259 112.44 199.536 111.95 200.091C111.459 200.646 111.214 201.456 111.214 202.523C111.214 203.59 111.459 204.416 111.95 205.003C112.44 205.579 113.123 205.867 113.998 205.867C114.36 205.867 114.734 205.792 115.118 205.643C115.512 205.494 115.88 205.248 116.222 204.907L116.622 205.627C116.302 205.968 115.896 206.235 115.406 206.427C114.926 206.608 114.446 206.699 113.966 206.699ZM118.593 206.571V198.555H119.569V206.571H118.593ZM118.433 196.587V195.371H119.745V196.587H118.433ZM122.234 206.571V200.347C122.234 200.059 122.223 199.766 122.202 199.467C122.18 199.168 122.148 198.864 122.106 198.555H123.066L123.21 200.395H123.018C123.252 199.755 123.631 199.264 124.154 198.923C124.676 198.582 125.284 198.411 125.978 198.411C126.927 198.411 127.642 198.662 128.122 199.163C128.612 199.664 128.858 200.448 128.858 201.515V206.571H127.882V201.595C127.882 200.774 127.716 200.182 127.386 199.819C127.055 199.446 126.543 199.259 125.85 199.259C125.039 199.259 124.394 199.504 123.914 199.995C123.444 200.486 123.21 201.147 123.21 201.979V206.571H122.234ZM134.924 206.699C133.708 206.699 132.742 206.336 132.028 205.611C131.324 204.886 130.972 203.878 130.972 202.587C130.972 201.734 131.126 200.998 131.436 200.379C131.756 199.76 132.198 199.28 132.764 198.939C133.329 198.587 133.985 198.411 134.732 198.411C135.446 198.411 136.049 198.566 136.54 198.875C137.03 199.174 137.409 199.606 137.676 200.171C137.942 200.726 138.076 201.387 138.076 202.155V202.603H131.676V201.899H137.468L137.196 202.107C137.196 201.2 136.988 200.491 136.572 199.979C136.156 199.456 135.537 199.195 134.716 199.195C133.841 199.195 133.158 199.499 132.668 200.107C132.177 200.704 131.932 201.499 131.932 202.491V202.603C131.932 203.67 132.193 204.48 132.716 205.035C133.249 205.59 133.99 205.867 134.94 205.867C135.43 205.867 135.889 205.792 136.316 205.643C136.742 205.494 137.153 205.238 137.548 204.875L137.948 205.595C137.606 205.947 137.164 206.219 136.62 206.411C136.076 206.603 135.51 206.699 134.924 206.699ZM142.763 206.699C142.144 206.699 141.563 206.608 141.019 206.427C140.486 206.246 140.043 205.995 139.691 205.675L140.075 204.955C140.47 205.275 140.896 205.515 141.355 205.675C141.814 205.824 142.294 205.899 142.795 205.899C143.478 205.899 143.995 205.771 144.347 205.515C144.699 205.259 144.875 204.912 144.875 204.475C144.875 204.134 144.763 203.856 144.539 203.643C144.315 203.43 143.942 203.27 143.419 203.163L141.979 202.859C141.296 202.699 140.784 202.443 140.443 202.091C140.112 201.739 139.947 201.296 139.947 200.763C139.947 200.304 140.064 199.899 140.299 199.547C140.544 199.195 140.891 198.918 141.339 198.715C141.787 198.512 142.315 198.411 142.923 198.411C143.499 198.411 144.027 198.507 144.507 198.699C144.998 198.88 145.398 199.142 145.707 199.483L145.291 200.187C144.971 199.867 144.608 199.627 144.203 199.467C143.808 199.307 143.387 199.227 142.939 199.227C142.278 199.227 141.776 199.366 141.435 199.643C141.094 199.91 140.923 200.267 140.923 200.715C140.923 201.056 141.03 201.339 141.243 201.563C141.456 201.776 141.792 201.936 142.251 202.043L143.691 202.363C144.416 202.523 144.955 202.768 145.307 203.099C145.659 203.43 145.835 203.867 145.835 204.411C145.835 204.88 145.707 205.291 145.451 205.643C145.195 205.984 144.838 206.246 144.379 206.427C143.92 206.608 143.382 206.699 142.763 206.699ZM154.283 206.571L151.387 198.555H152.443L155.019 205.995H154.587L157.259 198.555H158.251L160.875 205.995H160.459L163.067 198.555H164.075L161.163 206.571H160.155L157.467 199.035H158.027L155.307 206.571H154.283ZM165.968 206.571V198.555H166.944V206.571H165.968ZM165.808 196.587V195.371H167.12V196.587H165.808ZM172.201 206.699C171.486 206.699 170.937 206.486 170.553 206.059C170.179 205.632 169.993 204.976 169.993 204.091V199.339H168.393V198.555H169.993V196.315L170.969 195.995V198.555H173.337V199.339H170.969V203.947C170.969 204.619 171.075 205.104 171.289 205.403C171.502 205.702 171.843 205.851 172.313 205.851C172.526 205.851 172.713 205.83 172.873 205.787C173.043 205.744 173.187 205.696 173.305 205.643V206.507C173.177 206.56 173.011 206.603 172.809 206.635C172.606 206.678 172.403 206.699 172.201 206.699ZM174.999 206.571V194.795H175.975V200.411H175.783C176.007 199.76 176.386 199.264 176.919 198.923C177.452 198.582 178.071 198.411 178.775 198.411C179.746 198.411 180.46 198.667 180.919 199.179C181.388 199.691 181.623 200.459 181.623 201.483V206.571H180.647V201.563C180.647 200.752 180.487 200.166 180.167 199.803C179.847 199.44 179.335 199.259 178.631 199.259C177.831 199.259 177.186 199.504 176.695 199.995C176.215 200.486 175.975 201.136 175.975 201.947V206.571H174.999ZM191.495 206.699C190.738 206.699 190.082 206.534 189.527 206.203C188.983 205.872 188.562 205.398 188.263 204.779C187.965 204.16 187.815 203.419 187.815 202.555C187.815 201.702 187.965 200.966 188.263 200.347C188.562 199.728 188.983 199.254 189.527 198.923C190.082 198.582 190.738 198.411 191.495 198.411C192.242 198.411 192.887 198.582 193.431 198.923C193.986 199.254 194.413 199.728 194.711 200.347C195.021 200.966 195.175 201.702 195.175 202.555C195.175 203.419 195.021 204.16 194.711 204.779C194.413 205.398 193.986 205.872 193.431 206.203C192.887 206.534 192.242 206.699 191.495 206.699ZM191.495 205.867C192.306 205.867 192.957 205.584 193.447 205.019C193.938 204.454 194.183 203.632 194.183 202.555C194.183 201.478 193.938 200.656 193.447 200.091C192.957 199.526 192.306 199.243 191.495 199.243C190.674 199.243 190.018 199.526 189.527 200.091C189.047 200.656 188.807 201.478 188.807 202.555C188.807 203.632 189.047 204.454 189.527 205.019C190.018 205.584 190.674 205.867 191.495 205.867ZM200.128 206.699C199.189 206.699 198.474 206.448 197.984 205.947C197.504 205.435 197.264 204.651 197.264 203.595V198.555H198.24V203.531C198.24 204.342 198.405 204.934 198.736 205.307C199.066 205.68 199.573 205.867 200.256 205.867C201.013 205.867 201.621 205.622 202.08 205.131C202.549 204.63 202.784 203.968 202.784 203.147V198.555H203.76V206.571H202.8V204.683H203.008C202.784 205.334 202.416 205.835 201.904 206.187C201.402 206.528 200.81 206.699 200.128 206.699ZM206.405 206.571V200.427C206.405 200.118 206.394 199.808 206.373 199.499C206.362 199.179 206.336 198.864 206.293 198.555H207.253L207.381 200.395L207.189 200.411C207.296 199.963 207.488 199.595 207.765 199.307C208.042 199.008 208.362 198.784 208.725 198.635C209.088 198.486 209.461 198.411 209.845 198.411C209.984 198.411 210.112 198.422 210.229 198.443C210.357 198.454 210.474 198.475 210.581 198.507L210.549 199.387C210.421 199.344 210.293 199.318 210.165 199.307C210.037 199.296 209.898 199.291 209.749 199.291C209.269 199.291 208.848 199.408 208.485 199.643C208.133 199.878 207.861 200.176 207.669 200.539C207.477 200.902 207.381 201.27 207.381 201.643V206.571H206.405ZM216.077 206.571V200.347C216.077 200.059 216.067 199.766 216.045 199.467C216.024 199.168 215.992 198.864 215.949 198.555H216.909L217.053 200.395H216.861C217.064 199.766 217.4 199.28 217.869 198.939C218.339 198.587 218.909 198.411 219.581 198.411C220.264 198.411 220.819 198.576 221.245 198.907C221.672 199.238 221.955 199.75 222.093 200.443H221.853C222.045 199.824 222.397 199.334 222.909 198.971C223.421 198.598 224.024 198.411 224.717 198.411C225.592 198.411 226.253 198.662 226.701 199.163C227.149 199.664 227.373 200.448 227.373 201.515V206.571H226.397V201.579C226.397 200.768 226.253 200.182 225.965 199.819C225.677 199.446 225.208 199.259 224.557 199.259C223.832 199.259 223.256 199.504 222.829 199.995C222.413 200.486 222.205 201.147 222.205 201.979V206.571H221.229V201.579C221.229 200.768 221.085 200.182 220.797 199.819C220.509 199.446 220.045 199.259 219.405 199.259C218.68 199.259 218.104 199.504 217.677 199.995C217.261 200.486 217.053 201.147 217.053 201.979V206.571H216.077ZM233.152 206.699C232.394 206.699 231.738 206.534 231.184 206.203C230.64 205.872 230.218 205.398 229.92 204.779C229.621 204.16 229.472 203.419 229.472 202.555C229.472 201.702 229.621 200.966 229.92 200.347C230.218 199.728 230.64 199.254 231.184 198.923C231.738 198.582 232.394 198.411 233.152 198.411C233.898 198.411 234.544 198.582 235.088 198.923C235.642 199.254 236.069 199.728 236.368 200.347C236.677 200.966 236.832 201.702 236.832 202.555C236.832 203.419 236.677 204.16 236.368 204.779C236.069 205.398 235.642 205.872 235.088 206.203C234.544 206.534 233.898 206.699 233.152 206.699ZM233.152 205.867C233.962 205.867 234.613 205.584 235.104 205.019C235.594 204.454 235.84 203.632 235.84 202.555C235.84 201.478 235.594 200.656 235.104 200.091C234.613 199.526 233.962 199.243 233.152 199.243C232.33 199.243 231.674 199.526 231.184 200.091C230.704 200.656 230.464 201.478 230.464 202.555C230.464 203.632 230.704 204.454 231.184 205.019C231.674 205.584 232.33 205.867 233.152 205.867ZM242.744 206.699C241.997 206.699 241.357 206.512 240.824 206.139C240.301 205.755 239.949 205.227 239.768 204.555H239.944V206.571H238.968V194.795H239.944V200.539H239.768C239.949 199.878 240.301 199.36 240.824 198.987C241.357 198.603 241.997 198.411 242.744 198.411C243.469 198.411 244.093 198.582 244.616 198.923C245.149 199.254 245.56 199.728 245.848 200.347C246.147 200.955 246.296 201.696 246.296 202.571C246.296 203.424 246.147 204.16 245.848 204.779C245.549 205.398 245.133 205.872 244.6 206.203C244.077 206.534 243.459 206.699 242.744 206.699ZM242.6 205.867C243.421 205.867 244.077 205.59 244.568 205.035C245.059 204.47 245.304 203.648 245.304 202.571C245.304 201.494 245.059 200.672 244.568 200.107C244.077 199.531 243.421 199.243 242.6 199.243C241.789 199.243 241.139 199.526 240.648 200.091C240.168 200.656 239.928 201.478 239.928 202.555C239.928 203.632 240.168 204.454 240.648 205.019C241.139 205.584 241.789 205.867 242.6 205.867ZM248.421 206.571V198.555H249.397V206.571H248.421ZM248.261 196.587V195.371H249.573V196.587H248.261ZM252.062 206.571V194.795H253.038V206.571H252.062ZM259.142 206.699C257.926 206.699 256.961 206.336 256.246 205.611C255.542 204.886 255.19 203.878 255.19 202.587C255.19 201.734 255.345 200.998 255.654 200.379C255.974 199.76 256.417 199.28 256.982 198.939C257.548 198.587 258.204 198.411 258.95 198.411C259.665 198.411 260.268 198.566 260.758 198.875C261.249 199.174 261.628 199.606 261.894 200.171C262.161 200.726 262.294 201.387 262.294 202.155V202.603H255.894V201.899H261.686L261.414 202.107C261.414 201.2 261.206 200.491 260.79 199.979C260.374 199.456 259.756 199.195 258.934 199.195C258.06 199.195 257.377 199.499 256.886 200.107C256.396 200.704 256.15 201.499 256.15 202.491V202.603C256.15 203.67 256.412 204.48 256.934 205.035C257.468 205.59 258.209 205.867 259.158 205.867C259.649 205.867 260.108 205.792 260.534 205.643C260.961 205.494 261.372 205.238 261.766 204.875L262.166 205.595C261.825 205.947 261.382 206.219 260.838 206.411C260.294 206.603 259.729 206.699 259.142 206.699ZM5.53914 234.699C4.81381 234.699 4.18448 234.534 3.65114 234.203C3.11781 233.872 2.70714 233.398 2.41914 232.779C2.13114 232.16 1.98714 231.419 1.98714 230.555C1.98714 229.691 2.13114 228.955 2.41914 228.347C2.71781 227.728 3.13381 227.254 3.66714 226.923C4.20048 226.582 4.82448 226.411 5.53914 226.411C6.27514 226.411 6.90981 226.603 7.44314 226.987C7.98714 227.371 8.34448 227.894 8.51514 228.555H8.32314L8.48314 226.555H9.42714C9.39514 226.864 9.36314 227.168 9.33114 227.467C9.30981 227.766 9.29914 228.059 9.29914 228.347V234.571H8.32314V232.571H8.49914C8.32848 233.232 7.97114 233.755 7.42714 234.139C6.89381 234.512 6.26448 234.699 5.53914 234.699ZM5.66714 233.867C6.48848 233.867 7.13914 233.584 7.61914 233.019C8.09914 232.454 8.33914 231.632 8.33914 230.555C8.33914 229.478 8.09914 228.656 7.61914 228.091C7.13914 227.526 6.48848 227.243 5.66714 227.243C4.84581 227.243 4.18981 227.526 3.69914 228.091C3.21914 228.656 2.97914 229.478 2.97914 230.555C2.97914 231.632 3.21914 232.454 3.69914 233.019C4.18981 233.584 4.84581 233.867 5.66714 233.867ZM11.9523 238.027V228.347C11.9523 228.059 11.9416 227.766 11.9203 227.467C11.8989 227.168 11.8669 226.864 11.8243 226.555H12.7843L12.9443 228.555H12.7523C12.9336 227.894 13.2856 227.371 13.8083 226.987C14.3309 226.603 14.9656 226.411 15.7123 226.411C16.4376 226.411 17.0616 226.582 17.5843 226.923C18.1176 227.254 18.5336 227.728 18.8323 228.347C19.1309 228.955 19.2803 229.691 19.2803 230.555C19.2803 231.419 19.1309 232.16 18.8323 232.779C18.5443 233.398 18.1336 233.872 17.6003 234.203C17.0669 234.534 16.4376 234.699 15.7123 234.699C14.9763 234.699 14.3416 234.512 13.8083 234.139C13.2856 233.755 12.9336 233.232 12.7523 232.571H12.9283V238.027H11.9523ZM15.5843 233.867C16.4056 233.867 17.0616 233.584 17.5523 233.019C18.0429 232.454 18.2883 231.632 18.2883 230.555C18.2883 229.478 18.0429 228.656 17.5523 228.091C17.0616 227.526 16.4056 227.243 15.5843 227.243C14.7736 227.243 14.1229 227.526 13.6323 228.091C13.1523 228.656 12.9123 229.478 12.9123 230.555C12.9123 231.632 13.1523 232.454 13.6323 233.019C14.1229 233.584 14.7736 233.867 15.5843 233.867ZM21.4054 238.027V228.347C21.4054 228.059 21.3947 227.766 21.3734 227.467C21.3521 227.168 21.3201 226.864 21.2774 226.555H22.2374L22.3974 228.555H22.2054C22.3867 227.894 22.7387 227.371 23.2614 226.987C23.7841 226.603 24.4187 226.411 25.1654 226.411C25.8907 226.411 26.5147 226.582 27.0374 226.923C27.5707 227.254 27.9867 227.728 28.2854 228.347C28.5841 228.955 28.7334 229.691 28.7334 230.555C28.7334 231.419 28.5841 232.16 28.2854 232.779C27.9974 233.398 27.5867 233.872 27.0534 234.203C26.5201 234.534 25.8907 234.699 25.1654 234.699C24.4294 234.699 23.7947 234.512 23.2614 234.139C22.7387 233.755 22.3867 233.232 22.2054 232.571H22.3814V238.027H21.4054ZM25.0374 233.867C25.8587 233.867 26.5147 233.584 27.0054 233.019C27.4961 232.454 27.7414 231.632 27.7414 230.555C27.7414 229.478 27.4961 228.656 27.0054 228.091C26.5147 227.526 25.8587 227.243 25.0374 227.243C24.2267 227.243 23.5761 227.526 23.0854 228.091C22.6054 228.656 22.3654 229.478 22.3654 230.555C22.3654 231.632 22.6054 232.454 23.0854 233.019C23.5761 233.584 24.2267 233.867 25.0374 233.867ZM30.8585 234.571V222.795H31.8345V234.571H30.8585ZM34.4991 234.571V226.555H35.4751V234.571H34.4991ZM34.3391 224.587V223.371H35.6511V224.587H34.3391ZM41.3718 234.699C40.6144 234.699 39.9531 234.534 39.3878 234.203C38.8224 233.862 38.3851 233.376 38.0758 232.747C37.7771 232.118 37.6278 231.371 37.6278 230.507C37.6278 229.643 37.7824 228.907 38.0918 228.299C38.4011 227.68 38.8331 227.211 39.3878 226.891C39.9531 226.571 40.6144 226.411 41.3718 226.411C41.8838 226.411 42.3744 226.507 42.8438 226.699C43.3238 226.891 43.7184 227.158 44.0278 227.499L43.6278 228.219C43.2971 227.888 42.9398 227.648 42.5558 227.499C42.1718 227.339 41.7878 227.259 41.4038 227.259C40.5291 227.259 39.8464 227.536 39.3558 228.091C38.8651 228.646 38.6198 229.456 38.6198 230.523C38.6198 231.59 38.8651 232.416 39.3558 233.003C39.8464 233.579 40.5291 233.867 41.4038 233.867C41.7664 233.867 42.1398 233.792 42.5238 233.643C42.9184 233.494 43.2864 233.248 43.6278 232.907L44.0278 233.627C43.7078 233.968 43.3024 234.235 42.8118 234.427C42.3318 234.608 41.8518 234.699 41.3718 234.699ZM48.961 234.699C48.2357 234.699 47.6064 234.534 47.073 234.203C46.5397 233.872 46.129 233.398 45.841 232.779C45.553 232.16 45.409 231.419 45.409 230.555C45.409 229.691 45.553 228.955 45.841 228.347C46.1397 227.728 46.5557 227.254 47.089 226.923C47.6224 226.582 48.2464 226.411 48.961 226.411C49.697 226.411 50.3317 226.603 50.865 226.987C51.409 227.371 51.7664 227.894 51.937 228.555H51.745L51.905 226.555H52.849C52.817 226.864 52.785 227.168 52.753 227.467C52.7317 227.766 52.721 228.059 52.721 228.347V234.571H51.745V232.571H51.921C51.7504 233.232 51.393 233.755 50.849 234.139C50.3157 234.512 49.6864 234.699 48.961 234.699ZM49.089 233.867C49.9104 233.867 50.561 233.584 51.041 233.019C51.521 232.454 51.761 231.632 51.761 230.555C51.761 229.478 51.521 228.656 51.041 228.091C50.561 227.526 49.9104 227.243 49.089 227.243C48.2677 227.243 47.6117 227.526 47.121 228.091C46.641 228.656 46.401 229.478 46.401 230.555C46.401 231.632 46.641 232.454 47.121 233.019C47.6117 233.584 48.2677 233.867 49.089 233.867ZM57.9661 234.699C57.2515 234.699 56.7021 234.486 56.3181 234.059C55.9448 233.632 55.7581 232.976 55.7581 232.091V227.339H54.1581V226.555H55.7581V224.315L56.7341 223.995V226.555H59.1021V227.339H56.7341V231.947C56.7341 232.619 56.8408 233.104 57.0541 233.403C57.2675 233.702 57.6088 233.851 58.0781 233.851C58.2915 233.851 58.4781 233.83 58.6381 233.787C58.8088 233.744 58.9528 233.696 59.0701 233.643V234.507C58.9421 234.56 58.7768 234.603 58.5741 234.635C58.3715 234.678 58.1688 234.699 57.9661 234.699ZM60.7648 234.571V226.555H61.7408V234.571H60.7648ZM60.6048 224.587V223.371H61.9168V224.587H60.6048ZM67.5734 234.699C66.8161 234.699 66.1601 234.534 65.6054 234.203C65.0614 233.872 64.6401 233.398 64.3414 232.779C64.0427 232.16 63.8934 231.419 63.8934 230.555C63.8934 229.702 64.0427 228.966 64.3414 228.347C64.6401 227.728 65.0614 227.254 65.6054 226.923C66.1601 226.582 66.8161 226.411 67.5734 226.411C68.3201 226.411 68.9654 226.582 69.5094 226.923C70.0641 227.254 70.4907 227.728 70.7894 228.347C71.0987 228.966 71.2534 229.702 71.2534 230.555C71.2534 231.419 71.0987 232.16 70.7894 232.779C70.4907 233.398 70.0641 233.872 69.5094 234.203C68.9654 234.534 68.3201 234.699 67.5734 234.699ZM67.5734 233.867C68.3841 233.867 69.0347 233.584 69.5254 233.019C70.0161 232.454 70.2614 231.632 70.2614 230.555C70.2614 229.478 70.0161 228.656 69.5254 228.091C69.0347 227.526 68.3841 227.243 67.5734 227.243C66.7521 227.243 66.0961 227.526 65.6054 228.091C65.1254 228.656 64.8854 229.478 64.8854 230.555C64.8854 231.632 65.1254 232.454 65.6054 233.019C66.0961 233.584 66.7521 233.867 67.5734 233.867ZM73.3898 234.571V228.347C73.3898 228.059 73.3791 227.766 73.3578 227.467C73.3364 227.168 73.3044 226.864 73.2618 226.555H74.2218L74.3658 228.395H74.1738C74.4084 227.755 74.7871 227.264 75.3098 226.923C75.8324 226.582 76.4404 226.411 77.1338 226.411C78.0831 226.411 78.7978 226.662 79.2778 227.163C79.7684 227.664 80.0138 228.448 80.0138 229.515V234.571H79.0378V229.595C79.0378 228.774 78.8724 228.182 78.5418 227.819C78.2111 227.446 77.6991 227.259 77.0058 227.259C76.1951 227.259 75.5498 227.504 75.0698 227.995C74.6004 228.486 74.3658 229.147 74.3658 229.979V234.571H73.3898ZM88.8459 234.571L85.9499 226.555H87.0059L89.5819 233.995H89.1499L91.8219 226.555H92.8139L95.4379 233.995H95.0219L97.6299 226.555H98.6379L95.7259 234.571H94.7179L92.0299 227.035H92.5899L89.8699 234.571H88.8459ZM100.53 234.571V226.555H101.506V234.571H100.53ZM100.37 224.587V223.371H101.682V224.587H100.37ZM106.763 234.699C106.048 234.699 105.499 234.486 105.115 234.059C104.742 233.632 104.555 232.976 104.555 232.091V227.339H102.955V226.555H104.555V224.315L105.531 223.995V226.555H107.899V227.339H105.531V231.947C105.531 232.619 105.638 233.104 105.851 233.403C106.064 233.702 106.406 233.851 106.875 233.851C107.088 233.851 107.275 233.83 107.435 233.787C107.606 233.744 107.75 233.696 107.867 233.643V234.507C107.739 234.56 107.574 234.603 107.371 234.635C107.168 234.678 106.966 234.699 106.763 234.699ZM109.562 234.571V222.795H110.538V228.411H110.346C110.57 227.76 110.948 227.264 111.482 226.923C112.015 226.582 112.634 226.411 113.338 226.411C114.308 226.411 115.023 226.667 115.482 227.179C115.951 227.691 116.186 228.459 116.186 229.483V234.571H115.21V229.563C115.21 228.752 115.05 228.166 114.73 227.803C114.41 227.44 113.898 227.259 113.194 227.259C112.394 227.259 111.748 227.504 111.258 227.995C110.778 228.486 110.538 229.136 110.538 229.947V234.571H109.562ZM125.93 234.699C125.204 234.699 124.575 234.534 124.042 234.203C123.508 233.872 123.098 233.398 122.81 232.779C122.522 232.16 122.378 231.419 122.378 230.555C122.378 229.691 122.522 228.955 122.81 228.347C123.108 227.728 123.524 227.254 124.058 226.923C124.591 226.582 125.215 226.411 125.93 226.411C126.666 226.411 127.3 226.603 127.834 226.987C128.378 227.371 128.735 227.894 128.906 228.555H128.714L128.874 226.555H129.818C129.786 226.864 129.754 227.168 129.722 227.467C129.7 227.766 129.69 228.059 129.69 228.347V234.571H128.714V232.571H128.89C128.719 233.232 128.362 233.755 127.818 234.139C127.284 234.512 126.655 234.699 125.93 234.699ZM126.058 233.867C126.879 233.867 127.53 233.584 128.01 233.019C128.49 232.454 128.73 231.632 128.73 230.555C128.73 229.478 128.49 228.656 128.01 228.091C127.53 227.526 126.879 227.243 126.058 227.243C125.236 227.243 124.58 227.526 124.09 228.091C123.61 228.656 123.37 229.478 123.37 230.555C123.37 231.632 123.61 232.454 124.09 233.019C124.58 233.584 125.236 233.867 126.058 233.867ZM139.013 234.699C138.394 234.699 137.813 234.608 137.269 234.427C136.736 234.246 136.293 233.995 135.941 233.675L136.325 232.955C136.72 233.275 137.146 233.515 137.605 233.675C138.064 233.824 138.544 233.899 139.045 233.899C139.728 233.899 140.245 233.771 140.597 233.515C140.949 233.259 141.125 232.912 141.125 232.475C141.125 232.134 141.013 231.856 140.789 231.643C140.565 231.43 140.192 231.27 139.669 231.163L138.229 230.859C137.546 230.699 137.034 230.443 136.693 230.091C136.362 229.739 136.197 229.296 136.197 228.763C136.197 228.304 136.314 227.899 136.549 227.547C136.794 227.195 137.141 226.918 137.589 226.715C138.037 226.512 138.565 226.411 139.173 226.411C139.749 226.411 140.277 226.507 140.757 226.699C141.248 226.88 141.648 227.142 141.957 227.483L141.541 228.187C141.221 227.867 140.858 227.627 140.453 227.467C140.058 227.307 139.637 227.227 139.189 227.227C138.528 227.227 138.026 227.366 137.685 227.643C137.344 227.91 137.173 228.267 137.173 228.715C137.173 229.056 137.28 229.339 137.493 229.563C137.706 229.776 138.042 229.936 138.501 230.043L139.941 230.363C140.666 230.523 141.205 230.768 141.557 231.099C141.909 231.43 142.085 231.867 142.085 232.411C142.085 232.88 141.957 233.291 141.701 233.643C141.445 233.984 141.088 234.246 140.629 234.427C140.17 234.608 139.632 234.699 139.013 234.699ZM144.327 234.571V226.555H145.303V234.571H144.327ZM144.167 224.587V223.371H145.479V224.587H144.167ZM147.968 234.571V228.347C147.968 228.059 147.957 227.766 147.936 227.467C147.915 227.168 147.883 226.864 147.84 226.555H148.8L148.944 228.395H148.752C148.955 227.766 149.291 227.28 149.76 226.939C150.229 226.587 150.8 226.411 151.472 226.411C152.155 226.411 152.709 226.576 153.136 226.907C153.563 227.238 153.845 227.75 153.984 228.443H153.744C153.936 227.824 154.288 227.334 154.8 226.971C155.312 226.598 155.915 226.411 156.608 226.411C157.483 226.411 158.144 226.662 158.592 227.163C159.04 227.664 159.264 228.448 159.264 229.515V234.571H158.288V229.579C158.288 228.768 158.144 228.182 157.856 227.819C157.568 227.446 157.099 227.259 156.448 227.259C155.723 227.259 155.147 227.504 154.72 227.995C154.304 228.486 154.096 229.147 154.096 229.979V234.571H153.12V229.579C153.12 228.768 152.976 228.182 152.688 227.819C152.4 227.446 151.936 227.259 151.296 227.259C150.571 227.259 149.995 227.504 149.568 227.995C149.152 228.486 148.944 229.147 148.944 229.979V234.571H147.968ZM161.874 238.027V228.347C161.874 228.059 161.863 227.766 161.842 227.467C161.821 227.168 161.789 226.864 161.746 226.555H162.706L162.866 228.555H162.674C162.855 227.894 163.207 227.371 163.73 226.987C164.253 226.603 164.887 226.411 165.634 226.411C166.359 226.411 166.983 226.582 167.506 226.923C168.039 227.254 168.455 227.728 168.754 228.347C169.053 228.955 169.202 229.691 169.202 230.555C169.202 231.419 169.053 232.16 168.754 232.779C168.466 233.398 168.055 233.872 167.522 234.203C166.989 234.534 166.359 234.699 165.634 234.699C164.898 234.699 164.263 234.512 163.73 234.139C163.207 233.755 162.855 233.232 162.674 232.571H162.85V238.027H161.874ZM165.506 233.867C166.327 233.867 166.983 233.584 167.474 233.019C167.965 232.454 168.21 231.632 168.21 230.555C168.21 229.478 167.965 228.656 167.474 228.091C166.983 227.526 166.327 227.243 165.506 227.243C164.695 227.243 164.045 227.526 163.554 228.091C163.074 228.656 162.834 229.478 162.834 230.555C162.834 231.632 163.074 232.454 163.554 233.019C164.045 233.584 164.695 233.867 165.506 233.867ZM171.327 234.571V222.795H172.303V234.571H171.327ZM178.408 234.699C177.192 234.699 176.227 234.336 175.512 233.611C174.808 232.886 174.456 231.878 174.456 230.587C174.456 229.734 174.611 228.998 174.92 228.379C175.24 227.76 175.683 227.28 176.248 226.939C176.813 226.587 177.469 226.411 178.216 226.411C178.931 226.411 179.533 226.566 180.024 226.875C180.515 227.174 180.893 227.606 181.16 228.171C181.427 228.726 181.56 229.387 181.56 230.155V230.603H175.16V229.899H180.952L180.68 230.107C180.68 229.2 180.472 228.491 180.056 227.979C179.64 227.456 179.021 227.195 178.2 227.195C177.325 227.195 176.643 227.499 176.152 228.107C175.661 228.704 175.416 229.499 175.416 230.491V230.603C175.416 231.67 175.677 232.48 176.2 233.035C176.733 233.59 177.475 233.867 178.424 233.867C178.915 233.867 179.373 233.792 179.8 233.643C180.227 233.494 180.637 233.238 181.032 232.875L181.432 233.595C181.091 233.947 180.648 234.219 180.104 234.411C179.56 234.603 178.995 234.699 178.408 234.699ZM190.758 234.699C190.043 234.699 189.419 234.534 188.886 234.203C188.352 233.872 187.942 233.398 187.654 232.779C187.366 232.16 187.222 231.419 187.222 230.555C187.222 229.691 187.366 228.955 187.654 228.347C187.942 227.728 188.352 227.254 188.886 226.923C189.419 226.582 190.043 226.411 190.758 226.411C191.494 226.411 192.128 226.603 192.662 226.987C193.206 227.36 193.568 227.878 193.75 228.539H193.558V222.795H194.534V234.571H193.574V232.555H193.75C193.568 233.227 193.206 233.755 192.662 234.139C192.128 234.512 191.494 234.699 190.758 234.699ZM190.886 233.867C191.696 233.867 192.347 233.584 192.838 233.019C193.339 232.454 193.59 231.632 193.59 230.555C193.59 229.478 193.339 228.656 192.838 228.091C192.347 227.526 191.696 227.243 190.886 227.243C190.075 227.243 189.424 227.526 188.934 228.091C188.454 228.656 188.214 229.478 188.214 230.555C188.214 231.632 188.454 232.454 188.934 233.019C189.424 233.584 190.075 233.867 190.886 233.867ZM200.627 234.699C199.411 234.699 198.445 234.336 197.731 233.611C197.027 232.886 196.675 231.878 196.675 230.587C196.675 229.734 196.829 228.998 197.139 228.379C197.459 227.76 197.901 227.28 198.467 226.939C199.032 226.587 199.688 226.411 200.435 226.411C201.149 226.411 201.752 226.566 202.243 226.875C202.733 227.174 203.112 227.606 203.379 228.171C203.645 228.726 203.779 229.387 203.779 230.155V230.603H197.379V229.899H203.171L202.899 230.107C202.899 229.2 202.691 228.491 202.275 227.979C201.859 227.456 201.24 227.195 200.419 227.195C199.544 227.195 198.861 227.499 198.371 228.107C197.88 228.704 197.635 229.499 197.635 230.491V230.603C197.635 231.67 197.896 232.48 198.419 233.035C198.952 233.59 199.693 233.867 200.643 233.867C201.133 233.867 201.592 233.792 202.019 233.643C202.445 233.494 202.856 233.238 203.251 232.875L203.651 233.595C203.309 233.947 202.867 234.219 202.323 234.411C201.779 234.603 201.213 234.699 200.627 234.699ZM205.874 234.571V222.795H206.85V234.571H205.874ZM209.515 234.571V226.555H210.491V234.571H209.515ZM209.355 224.587V223.371H210.667V224.587H209.355ZM215.523 234.571L212.115 226.555H213.203L216.243 233.963H215.827L218.899 226.555H219.939L216.531 234.571H215.523ZM224.908 234.699C223.692 234.699 222.727 234.336 222.012 233.611C221.308 232.886 220.956 231.878 220.956 230.587C220.956 229.734 221.111 228.998 221.42 228.379C221.74 227.76 222.183 227.28 222.748 226.939C223.313 226.587 223.969 226.411 224.716 226.411C225.431 226.411 226.033 226.566 226.524 226.875C227.015 227.174 227.393 227.606 227.66 228.171C227.927 228.726 228.06 229.387 228.06 230.155V230.603H221.66V229.899H227.452L227.18 230.107C227.18 229.2 226.972 228.491 226.556 227.979C226.14 227.456 225.521 227.195 224.7 227.195C223.825 227.195 223.143 227.499 222.652 228.107C222.161 228.704 221.916 229.499 221.916 230.491V230.603C221.916 231.67 222.177 232.48 222.7 233.035C223.233 233.59 223.975 233.867 224.924 233.867C225.415 233.867 225.873 233.792 226.3 233.643C226.727 233.494 227.137 233.238 227.532 232.875L227.932 233.595C227.591 233.947 227.148 234.219 226.604 234.411C226.06 234.603 225.495 234.699 224.908 234.699ZM230.139 234.571V228.427C230.139 228.118 230.129 227.808 230.107 227.499C230.097 227.179 230.07 226.864 230.027 226.555H230.987L231.115 228.395L230.923 228.411C231.03 227.963 231.222 227.595 231.499 227.307C231.777 227.008 232.097 226.784 232.459 226.635C232.822 226.486 233.195 226.411 233.579 226.411C233.718 226.411 233.846 226.422 233.963 226.443C234.091 226.454 234.209 226.475 234.315 226.507L234.283 227.387C234.155 227.344 234.027 227.318 233.899 227.307C233.771 227.296 233.633 227.291 233.483 227.291C233.003 227.291 232.582 227.408 232.219 227.643C231.867 227.878 231.595 228.176 231.403 228.539C231.211 228.902 231.115 229.27 231.115 229.643V234.571H230.139ZM235.85 238.203L235.61 237.355C236.111 237.238 236.527 237.094 236.858 236.923C237.189 236.763 237.466 236.55 237.69 236.283C237.914 236.016 238.111 235.686 238.282 235.291L238.698 234.331L238.682 234.763L235.178 226.555H236.266L239.322 233.963H238.922L241.946 226.555H243.002L239.29 235.339C239.087 235.83 238.863 236.235 238.618 236.555C238.383 236.886 238.127 237.158 237.85 237.371C237.573 237.595 237.269 237.771 236.938 237.899C236.607 238.027 236.245 238.128 235.85 238.203ZM5.09114 262.699C4.47248 262.699 3.89114 262.608 3.34714 262.427C2.81381 262.246 2.37114 261.995 2.01914 261.675L2.40314 260.955C2.79781 261.275 3.22448 261.515 3.68314 261.675C4.14181 261.824 4.62181 261.899 5.12314 261.899C5.80581 261.899 6.32314 261.771 6.67514 261.515C7.02714 261.259 7.20314 260.912 7.20314 260.475C7.20314 260.134 7.09114 259.856 6.86714 259.643C6.64314 259.43 6.26981 259.27 5.74714 259.163L4.30714 258.859C3.62448 258.699 3.11248 258.443 2.77114 258.091C2.44048 257.739 2.27514 257.296 2.27514 256.763C2.27514 256.304 2.39248 255.899 2.62714 255.547C2.87248 255.195 3.21914 254.918 3.66714 254.715C4.11514 254.512 4.64314 254.411 5.25114 254.411C5.82714 254.411 6.35514 254.507 6.83514 254.699C7.32581 254.88 7.72581 255.142 8.03514 255.483L7.61914 256.187C7.29914 255.867 6.93648 255.627 6.53114 255.467C6.13648 255.307 5.71514 255.227 5.26714 255.227C4.60581 255.227 4.10448 255.366 3.76314 255.643C3.42181 255.91 3.25114 256.267 3.25114 256.715C3.25114 257.056 3.35781 257.339 3.57114 257.563C3.78448 257.776 4.12048 257.936 4.57914 258.043L6.01914 258.363C6.74448 258.523 7.28314 258.768 7.63514 259.099C7.98714 259.43 8.16314 259.867 8.16314 260.411C8.16314 260.88 8.03514 261.291 7.77914 261.643C7.52314 261.984 7.16581 262.246 6.70714 262.427C6.24848 262.608 5.70981 262.699 5.09114 262.699ZM9.88114 266.203L9.64114 265.355C10.1425 265.238 10.5585 265.094 10.8891 264.923C11.2198 264.763 11.4971 264.55 11.7211 264.283C11.9451 264.016 12.1425 263.686 12.3131 263.291L12.7291 262.331L12.7131 262.763L9.20914 254.555H10.2971L13.3531 261.963H12.9531L15.9771 254.555H17.0331L13.3211 263.339C13.1185 263.83 12.8945 264.235 12.6491 264.555C12.4145 264.886 12.1585 265.158 11.8811 265.371C11.6038 265.595 11.2998 265.771 10.9691 265.899C10.6385 266.027 10.2758 266.128 9.88114 266.203ZM21.0911 262.699C20.4725 262.699 19.8911 262.608 19.3471 262.427C18.8138 262.246 18.3711 261.995 18.0191 261.675L18.4031 260.955C18.7978 261.275 19.2245 261.515 19.6831 261.675C20.1418 261.824 20.6218 261.899 21.1231 261.899C21.8058 261.899 22.3231 261.771 22.6751 261.515C23.0271 261.259 23.2031 260.912 23.2031 260.475C23.2031 260.134 23.0911 259.856 22.8671 259.643C22.6431 259.43 22.2698 259.27 21.7471 259.163L20.3071 258.859C19.6245 258.699 19.1125 258.443 18.7711 258.091C18.4405 257.739 18.2751 257.296 18.2751 256.763C18.2751 256.304 18.3925 255.899 18.6271 255.547C18.8725 255.195 19.2191 254.918 19.6671 254.715C20.1151 254.512 20.6431 254.411 21.2511 254.411C21.8271 254.411 22.3551 254.507 22.8351 254.699C23.3258 254.88 23.7258 255.142 24.0351 255.483L23.6191 256.187C23.2991 255.867 22.9365 255.627 22.5311 255.467C22.1365 255.307 21.7151 255.227 21.2671 255.227C20.6058 255.227 20.1045 255.366 19.7631 255.643C19.4218 255.91 19.2511 256.267 19.2511 256.715C19.2511 257.056 19.3578 257.339 19.5711 257.563C19.7845 257.776 20.1205 257.936 20.5791 258.043L22.0191 258.363C22.7445 258.523 23.2831 258.768 23.6351 259.099C23.9871 259.43 24.1631 259.867 24.1631 260.411C24.1631 260.88 24.0351 261.291 23.7791 261.643C23.5231 261.984 23.1658 262.246 22.7071 262.427C22.2485 262.608 21.7098 262.699 21.0911 262.699ZM28.9193 262.699C28.2046 262.699 27.6553 262.486 27.2713 262.059C26.8979 261.632 26.7113 260.976 26.7113 260.091V255.339H25.1113V254.555H26.7113V252.315L27.6873 251.995V254.555H30.0553V255.339H27.6873V259.947C27.6873 260.619 27.7939 261.104 28.0073 261.403C28.2206 261.702 28.5619 261.851 29.0313 261.851C29.2446 261.851 29.4313 261.83 29.5913 261.787C29.7619 261.744 29.9059 261.696 30.0233 261.643V262.507C29.8953 262.56 29.7299 262.603 29.5273 262.635C29.3246 262.678 29.1219 262.699 28.9193 262.699ZM35.0798 262.699C33.8638 262.699 32.8984 262.336 32.1838 261.611C31.4798 260.886 31.1278 259.878 31.1278 258.587C31.1278 257.734 31.2824 256.998 31.5918 256.379C31.9118 255.76 32.3544 255.28 32.9198 254.939C33.4851 254.587 34.1411 254.411 34.8878 254.411C35.6024 254.411 36.2051 254.566 36.6958 254.875C37.1864 255.174 37.5651 255.606 37.8318 256.171C38.0984 256.726 38.2318 257.387 38.2318 258.155V258.603H31.8318V257.899H37.6238L37.3518 258.107C37.3518 257.2 37.1438 256.491 36.7278 255.979C36.3118 255.456 35.6931 255.195 34.8718 255.195C33.9971 255.195 33.3144 255.499 32.8238 256.107C32.3331 256.704 32.0878 257.499 32.0878 258.491V258.603C32.0878 259.67 32.3491 260.48 32.8718 261.035C33.4051 261.59 34.1464 261.867 35.0958 261.867C35.5864 261.867 36.0451 261.792 36.4718 261.643C36.8984 261.494 37.3091 261.238 37.7038 260.875L38.1038 261.595C37.7624 261.947 37.3198 262.219 36.7758 262.411C36.2318 262.603 35.6664 262.699 35.0798 262.699ZM40.3273 262.571V256.347C40.3273 256.059 40.3166 255.766 40.2953 255.467C40.2739 255.168 40.2419 254.864 40.1993 254.555H41.1593L41.3033 256.395H41.1113C41.3139 255.766 41.6499 255.28 42.1193 254.939C42.5886 254.587 43.1593 254.411 43.8313 254.411C44.5139 254.411 45.0686 254.576 45.4953 254.907C45.9219 255.238 46.2046 255.75 46.3433 256.443H46.1033C46.2953 255.824 46.6473 255.334 47.1593 254.971C47.6713 254.598 48.2739 254.411 48.9673 254.411C49.8419 254.411 50.5033 254.662 50.9513 255.163C51.3993 255.664 51.6233 256.448 51.6233 257.515V262.571H50.6473V257.579C50.6473 256.768 50.5033 256.182 50.2153 255.819C49.9273 255.446 49.4579 255.259 48.8073 255.259C48.0819 255.259 47.5059 255.504 47.0793 255.995C46.6633 256.486 46.4553 257.147 46.4553 257.979V262.571H45.4793V257.579C45.4793 256.768 45.3353 256.182 45.0473 255.819C44.7593 255.446 44.2953 255.259 43.6553 255.259C42.9299 255.259 42.3539 255.504 41.9273 255.995C41.5113 256.486 41.3033 257.147 41.3033 257.979V262.571H40.3273Z" fill="#7D7987"/>
<g clip-path="url(#clip0_0_92)">
<path d="M70.1594 29.1921L69.9513 71.9162L69.9167 80.1798C69.882 86.7461 63.5701 92.0438 55.8016 92.0095L16.9937 91.8381C9.24257 91.7866 2.96534 86.4375 3.00002 79.8541L3.24279 28.8664C3.26013 23.5516 7.42183 19.0597 13.1095 17.5682L13.1268 14.825V13.4192L60.4141 13.6421L60.3968 17.791C66.0671 19.3512 70.1768 23.8602 70.1594 29.1921Z" fill="url(#paint0_linear_0_92)"/>
<path d="M63.9342 2.66964V3.04682L63.8995 7.50438L63.8648 11.8762V12.4077C63.8648 13.2306 63.1712 13.8993 62.3389 13.8993H61.9747L59.6858 13.8821L57.1714 13.865L54.8825 13.8478L52.3682 13.8307L50.0445 13.7964L47.5302 13.7793L45.2412 13.7621L42.7095 13.745L40.4033 13.7278L37.8889 13.7107L35.6 13.6764L33.0856 13.6593L30.7967 13.6421L28.265 13.625L25.9587 13.6078L23.4617 13.5907L21.1727 13.5735L18.6584 13.5564L16.3521 13.5392L13.8377 13.5221L11.5315 13.505H11.1673C10.335 13.505 9.65869 12.8192 9.65869 11.9962V11.9791V11.6019L9.72805 2.78965V2.25817C9.72805 1.43524 10.4217 0.766602 11.2714 0.766602H11.6355L16.4561 0.800891L21.2768 0.83518L23.583 0.852324L26.0974 0.869468L28.3863 0.886613L33.1896 0.938046L35.704 0.955191L37.9929 0.972335L40.5073 0.98948L42.7962 1.00662L45.3106 1.02377L47.5995 1.04091L50.1139 1.05806L52.4028 1.0752L54.9519 1.10949L57.2408 1.12664L59.7552 1.14378L62.0614 1.16092H62.4256C63.2753 1.17807 63.9342 1.8467 63.9342 2.66964Z" fill="url(#paint1_linear_0_92)"/>
<path d="M63.9342 3.06398L63.8995 7.50441L63.8648 11.8763L61.8013 11.8591L59.0616 11.842L56.5472 11.8248H53.7901L51.2757 11.8077L48.5359 11.7905L46.0216 11.7734H43.2644L40.7501 11.7562L37.9929 11.7391L35.4959 11.722H32.7388L30.2244 11.7048L27.4673 11.6877L24.9529 11.6705H22.2132L19.6988 11.6534L16.9417 11.6362L14.4273 11.6191H11.6875L9.65869 11.6019L9.72805 2.78967L14.5487 2.80682L19.8028 2.84111L22.3172 2.85825L25.0743 2.8754H27.5887L32.8428 2.90968L35.6 2.92683H38.1143L40.8715 2.94397L43.3685 2.96112L46.1256 2.97826H48.64L51.3971 2.99541L53.8941 3.01255L56.6512 3.0297H59.1656L61.9227 3.04684L63.9342 3.06398Z" fill="url(#paint2_linear_0_92)"/>
<path d="M70.1086 38.2129L3.19189 37.8999L3.05162 67.2341L69.9683 67.5471L70.1086 38.2129Z" fill="#F7F9FC"/>
<path d="M70.1204 38.2128L3.20374 37.8999L3.17849 43.1804L70.0952 43.4933L70.1204 38.2128Z" fill="#FBFCF7"/>
<path d="M29.2881 49.6947L24.9704 49.6775L24.9877 45.3914L19.04 45.3743L19.0226 49.6432L14.7048 49.6261L14.6702 55.4895L18.9879 55.5067L18.9706 59.7928L24.9184 59.8099L24.9357 55.5409L29.2535 55.5581L29.2881 49.6947Z" fill="url(#paint3_linear_0_92)"/>
<path d="M58.6281 51.1177L37.23 51.0148C36.6578 51.0148 36.1896 50.5519 36.1896 49.9861V49.5061C36.1896 48.9403 36.6578 48.4774 37.23 48.4774L58.6281 48.5803C59.2003 48.5803 59.6685 49.0432 59.6685 49.609V50.089C59.6685 50.6548 59.2003 51.1177 58.6281 51.1177Z" fill="url(#paint4_linear_0_92)"/>
<path opacity="0.5" d="M58.6107 57.4097L37.2127 57.3068C36.6404 57.3068 36.1722 56.8439 36.1722 56.2781V55.7981C36.1722 55.2323 36.6404 54.7694 37.2127 54.7694L58.6107 54.8723C59.183 54.8723 59.6512 55.3352 59.6512 55.9009V56.381C59.6512 56.9468 59.183 57.4097 58.6107 57.4097Z" fill="url(#paint5_linear_0_92)"/>
<path opacity="0.08" d="M9.65869 2.6696V3.04678L9.69337 7.50435L9.72805 11.859V12.3905C9.72805 13.2135 10.4217 13.8821 11.254 13.8821H11.6182L13.9244 13.865L16.4388 13.8478L18.7277 13.8307L21.2421 13.8135L23.531 13.7964L26.0454 13.7792L28.3343 13.7621L30.8487 13.7449L33.155 13.7278L35.6693 13.7107L37.9583 13.6935L40.4726 13.6764L42.7616 13.6592L45.2759 13.6421L47.5822 13.6249L50.0966 13.6078L52.3855 13.5906L54.8998 13.5735L57.1888 13.5564L59.7031 13.5392L62.0094 13.5221H62.3736C63.2059 13.5221 63.8822 12.8363 63.8822 12.0133V11.9962V11.619C37.0566 12.7677 11.1673 1.16089 11.1673 1.16089C10.335 1.17803 9.65869 1.84667 9.65869 2.6696Z" fill="#1A6FB5"/>
</g>
<defs>
<linearGradient id="paint0_linear_0_92" x1="3.00002" y1="12.9323" x2="64.1153" y2="98.2454" gradientUnits="userSpaceOnUse">
<stop stop-color="#6CBCFC"/>
<stop offset="1" stop-color="#458DFC"/>
</linearGradient>
<linearGradient id="paint1_linear_0_92" x1="-680.924" y1="-42.0972" x2="-27.0427" y2="3.96731" gradientUnits="userSpaceOnUse">
<stop stop-color="#B0F4FF"/>
<stop offset="0.0525488" stop-color="#A9F2FF"/>
<stop offset="0.2879" stop-color="#8DE8FE"/>
<stop offset="0.5247" stop-color="#79E1FD"/>
<stop offset="0.7618" stop-color="#6DDDFC"/>
<stop offset="1" stop-color="#69DCFC"/>
</linearGradient>
<linearGradient id="paint2_linear_0_92" x1="9.66618" y1="7.32873" x2="63.9365" y2="7.32873" gradientUnits="userSpaceOnUse">
<stop stop-color="#B0F4FF"/>
<stop offset="0.0525488" stop-color="#A9F2FF"/>
<stop offset="0.2879" stop-color="#8DE8FE"/>
<stop offset="0.5247" stop-color="#79E1FD"/>
<stop offset="0.7618" stop-color="#6DDDFC"/>
<stop offset="1" stop-color="#69DCFC"/>
</linearGradient>
<linearGradient id="paint3_linear_0_92" x1="26.8618" y1="47.0271" x2="16.8092" y2="58.7518" gradientUnits="userSpaceOnUse">
<stop stop-color="#6CBCFC"/>
<stop offset="1" stop-color="#458DFC"/>
</linearGradient>
<linearGradient id="paint4_linear_0_92" x1="59.8749" y1="49.792" x2="34.3627" y2="49.792" gradientUnits="userSpaceOnUse">
<stop stop-color="#6CBCFC"/>
<stop offset="1" stop-color="#458DFC"/>
</linearGradient>
<linearGradient id="paint5_linear_0_92" x1="36.1706" y1="56.0836" x2="59.6515" y2="56.0836" gradientUnits="userSpaceOnUse">
<stop stop-color="#6CBCFC"/>
<stop offset="1" stop-color="#458DFC"/>
</linearGradient>
<clipPath id="clip0_0_92">
<rect width="67.1594" height="91.2429" fill="white" transform="translate(3 0.766602)"/>
</clipPath>
</defs>
</svg>
